<svg width="149" height="57" viewBox="0 0 149 57" fill="none" xmlns="http://www.w3.org/2000/svg">
<path d="M0.777344 15.082L7.70117 4.62305L9.41992 5.54102L2.50586 16L0.777344 15.082ZM7.70117 4.62305H10.0645V16H7.70117V4.62305ZM0.152344 4.62305H2.50586V16H0.152344V4.62305ZM19.4883 12.2109H21.8516C21.793 12.9857 21.5651 13.6693 21.168 14.2617C20.7773 14.8542 20.2305 15.3197 19.5273 15.6582C18.8242 15.9902 17.9746 16.1562 16.9785 16.1562C16.2038 16.1562 15.5072 16.0293 14.8887 15.7754C14.2767 15.5215 13.7526 15.1602 13.3164 14.6914C12.8867 14.2161 12.5547 13.6432 12.3203 12.9727C12.0924 12.2956 11.9785 11.5371 11.9785 10.6973V9.93555C11.9785 9.0957 12.0957 8.34049 12.3301 7.66992C12.5645 6.99284 12.903 6.41667 13.3457 5.94141C13.7884 5.45964 14.3158 5.09505 14.9277 4.84766C15.5462 4.59375 16.2396 4.4668 17.0078 4.4668C18.0169 4.4668 18.8665 4.63932 19.5566 4.98438C20.2467 5.32292 20.7839 5.79492 21.168 6.40039C21.5521 7.00586 21.7832 7.69922 21.8613 8.48047H19.5078C19.4688 8.05729 19.3613 7.6862 19.1855 7.36719C19.0098 7.04167 18.7461 6.78776 18.3945 6.60547C18.043 6.42318 17.5807 6.33203 17.0078 6.33203C16.5651 6.33203 16.1777 6.41016 15.8457 6.56641C15.5137 6.71615 15.2337 6.94401 15.0059 7.25C14.7845 7.55599 14.6152 7.93359 14.498 8.38281C14.3874 8.82552 14.332 9.33984 14.332 9.92578V10.6973C14.332 11.2702 14.3809 11.7812 14.4785 12.2305C14.5827 12.6732 14.7422 13.0475 14.957 13.3535C15.1719 13.6595 15.4453 13.8939 15.7773 14.0566C16.1159 14.2129 16.5163 14.291 16.9785 14.291C17.5319 14.291 17.9844 14.2161 18.3359 14.0664C18.6875 13.9102 18.9577 13.6758 19.1465 13.3633C19.3353 13.0508 19.4492 12.6667 19.4883 12.2109ZM25.9727 4.62305V16H23.6094V4.62305H25.9727ZM32.7598 4.62305L28.1113 11.3906H25.4258L25.1133 9.31055H27.0078L30.0059 4.62305H32.7598ZM30.1621 16L26.793 10.9902L28.4531 9.49609L33.0918 16H30.1621ZM38.8047 11.3906L41.4414 4.62305H44.0098L40.0449 13.4414C39.8171 13.9427 39.5664 14.4049 39.293 14.8281C39.0195 15.2448 38.668 15.5768 38.2383 15.8242C37.8086 16.0716 37.2389 16.1953 36.5293 16.1953C36.373 16.1953 36.1875 16.1888 35.9727 16.1758C35.7643 16.1693 35.6178 16.1595 35.5332 16.1465L35.5527 14.291C35.6243 14.304 35.7546 14.3138 35.9434 14.3203C36.1387 14.3268 36.2819 14.3301 36.373 14.3301C36.7116 14.3301 36.9818 14.265 37.1836 14.1348C37.3919 14.0046 37.5612 13.832 37.6914 13.6172C37.8281 13.4023 37.9551 13.168 38.0723 12.9141L38.8047 11.3906ZM36.2852 4.62305L38.873 10.3848L39.7715 13.0605L38.082 13.7637L33.6777 4.62305H36.2852ZM52.3984 12.2109H54.7617C54.7031 12.9857 54.4753 13.6693 54.0781 14.2617C53.6875 14.8542 53.1406 15.3197 52.4375 15.6582C51.7344 15.9902 50.8848 16.1562 49.8887 16.1562C49.1139 16.1562 48.4173 16.0293 47.7988 15.7754C47.1868 15.5215 46.6628 15.1602 46.2266 14.6914C45.7969 14.2161 45.4648 13.6432 45.2305 12.9727C45.0026 12.2956 44.8887 11.5371 44.8887 10.6973V9.93555C44.8887 9.0957 45.0059 8.34049 45.2402 7.66992C45.4746 6.99284 45.8132 6.41667 46.2559 5.94141C46.6986 5.45964 47.2259 5.09505 47.8379 4.84766C48.4564 4.59375 49.1497 4.4668 49.918 4.4668C50.9271 4.4668 51.7767 4.63932 52.4668 4.98438C53.1569 5.32292 53.694 5.79492 54.0781 6.40039C54.4622 7.00586 54.6934 7.69922 54.7715 8.48047H52.418C52.3789 8.05729 52.2715 7.6862 52.0957 7.36719C51.9199 7.04167 51.6562 6.78776 51.3047 6.60547C50.9531 6.42318 50.4909 6.33203 49.918 6.33203C49.4753 6.33203 49.0879 6.41016 48.7559 6.56641C48.4238 6.71615 48.1439 6.94401 47.916 7.25C47.6947 7.55599 47.5254 7.93359 47.4082 8.38281C47.2975 8.82552 47.2422 9.33984 47.2422 9.92578V10.6973C47.2422 11.2702 47.291 11.7812 47.3887 12.2305C47.4928 12.6732 47.6523 13.0475 47.8672 13.3535C48.082 13.6595 48.3555 13.8939 48.6875 14.0566C49.026 14.2129 49.4264 14.291 49.8887 14.291C50.4421 14.291 50.8945 14.2161 51.2461 14.0664C51.5977 13.9102 51.8678 13.6758 52.0566 13.3633C52.2454 13.0508 52.3594 12.6667 52.3984 12.2109ZM63.6484 12.2109H66.0117C65.9531 12.9857 65.7253 13.6693 65.3281 14.2617C64.9375 14.8542 64.3906 15.3197 63.6875 15.6582C62.9844 15.9902 62.1348 16.1562 61.1387 16.1562C60.3639 16.1562 59.6673 16.0293 59.0488 15.7754C58.4368 15.5215 57.9128 15.1602 57.4766 14.6914C57.0469 14.2161 56.7148 13.6432 56.4805 12.9727C56.2526 12.2956 56.1387 11.5371 56.1387 10.6973V9.93555C56.1387 9.0957 56.2559 8.34049 56.4902 7.66992C56.7246 6.99284 57.0632 6.41667 57.5059 5.94141C57.9486 5.45964 58.4759 5.09505 59.0879 4.84766C59.7064 4.59375 60.3997 4.4668 61.168 4.4668C62.1771 4.4668 63.0267 4.63932 63.7168 4.98438C64.4069 5.32292 64.944 5.79492 65.3281 6.40039C65.7122 7.00586 65.9434 7.69922 66.0215 8.48047H63.668C63.6289 8.05729 63.5215 7.6862 63.3457 7.36719C63.1699 7.04167 62.9062 6.78776 62.5547 6.60547C62.2031 6.42318 61.7409 6.33203 61.168 6.33203C60.7253 6.33203 60.3379 6.41016 60.0059 6.56641C59.6738 6.71615 59.3939 6.94401 59.166 7.25C58.9447 7.55599 58.7754 7.93359 58.6582 8.38281C58.5475 8.82552 58.4922 9.33984 58.4922 9.92578V10.6973C58.4922 11.2702 58.541 11.7812 58.6387 12.2305C58.7428 12.6732 58.9023 13.0475 59.1172 13.3535C59.332 13.6595 59.6055 13.8939 59.9375 14.0566C60.276 14.2129 60.6764 14.291 61.1387 14.291C61.6921 14.291 62.1445 14.2161 62.4961 14.0664C62.8477 13.9102 63.1178 13.6758 63.3066 13.3633C63.4954 13.0508 63.6094 12.6667 63.6484 12.2109ZM73.0723 4.62305V16H70.7188V4.62305H73.0723ZM76.8613 4.62305V6.49805H66.9785V4.62305H76.8613ZM83.1016 11.0293H79.957L79.9375 9.4082H82.7402C83.1634 9.4082 83.5215 9.35286 83.8145 9.24219C84.1074 9.13151 84.3288 8.97201 84.4785 8.76367C84.6348 8.54883 84.7129 8.28841 84.7129 7.98242C84.7129 7.63737 84.638 7.35417 84.4883 7.13281C84.3385 6.91146 84.1139 6.75195 83.8145 6.6543C83.515 6.55013 83.1439 6.49805 82.7012 6.49805H80.748V16H78.3945V4.62305H82.5742C83.2773 4.62305 83.9023 4.68815 84.4492 4.81836C85.0026 4.94206 85.4746 5.13086 85.8652 5.38477C86.2559 5.63867 86.5521 5.96419 86.7539 6.36133C86.9622 6.75195 87.0664 7.21419 87.0664 7.74805C87.0664 8.21029 86.9492 8.63997 86.7148 9.03711C86.487 9.43424 86.1354 9.75651 85.6602 10.0039C85.1849 10.2513 84.5697 10.388 83.8145 10.4141L83.1016 11.0293ZM82.9941 16H79.293L80.25 14.1348H82.9941C83.4499 14.1348 83.8242 14.0697 84.1172 13.9395C84.4167 13.8092 84.638 13.6335 84.7812 13.4121C84.9245 13.1842 84.9961 12.9238 84.9961 12.6309C84.9961 12.3053 84.931 12.0254 84.8008 11.791C84.6771 11.5501 84.4753 11.3646 84.1953 11.2344C83.9154 11.0977 83.5508 11.0293 83.1016 11.0293H80.6992L80.709 9.4082H83.7559L84.293 10.043C85.0156 10.0299 85.6016 10.1569 86.0508 10.4238C86.5 10.6842 86.8288 11.0228 87.0371 11.4395C87.252 11.8561 87.3594 12.2891 87.3594 12.7383C87.3594 13.2917 87.2617 13.7734 87.0664 14.1836C86.8711 14.5872 86.5879 14.9258 86.2168 15.1992C85.8457 15.4661 85.39 15.668 84.8496 15.8047C84.3092 15.9349 83.6908 16 82.9941 16ZM97.457 14.1348V16H90.9434V14.1348H97.457ZM91.6855 4.62305V16H89.332V4.62305H91.6855ZM96.6172 9.18359V11.0488H90.9434V9.18359H96.6172ZM97.4375 4.62305V6.49805H90.9434V4.62305H97.4375ZM107.154 9.4668V11.3418H100.709V9.4668H107.154ZM101.373 4.62305V16H99.0195V4.62305H101.373ZM108.873 4.62305V16H106.52V4.62305H108.873ZM119.322 9.4668V11.3418H112.877V9.4668H119.322ZM113.541 4.62305V16H111.188V4.62305H113.541ZM121.041 4.62305V16H118.688V4.62305H121.041ZM128.082 8.57812C129.02 8.57812 129.824 8.73438 130.494 9.04688C131.171 9.35286 131.692 9.78255 132.057 10.3359C132.421 10.8828 132.604 11.5241 132.604 12.2598C132.604 12.9889 132.421 13.6367 132.057 14.2031C131.692 14.763 131.171 15.2025 130.494 15.5215C129.824 15.8405 129.02 16 128.082 16H123.355V4.62305H125.709V14.125H128.082C128.818 14.125 129.361 13.9362 129.713 13.5586C130.071 13.1745 130.25 12.735 130.25 12.2402C130.25 11.9147 130.172 11.6185 130.016 11.3516C129.859 11.0846 129.622 10.8698 129.303 10.707C128.984 10.5378 128.577 10.4531 128.082 10.4531H124.918V8.57812H128.082ZM136.285 4.62305V16H133.922V4.62305H136.285ZM139.195 15.082L146.119 4.62305L147.838 5.54102L140.924 16L139.195 15.082ZM146.119 4.62305H148.482V16H146.119V4.62305ZM138.57 4.62305H140.924V16H138.57V4.62305ZM144.938 0.951172H146.686C146.686 1.49154 146.555 1.97005 146.295 2.38672C146.041 2.79688 145.676 3.11914 145.201 3.35352C144.732 3.58789 144.173 3.70508 143.521 3.70508C142.538 3.70508 141.76 3.45117 141.188 2.94336C140.621 2.42904 140.338 1.76497 140.338 0.951172H142.086C142.086 1.31576 142.193 1.63802 142.408 1.91797C142.63 2.19141 143.001 2.32812 143.521 2.32812C144.036 2.32812 144.4 2.19141 144.615 1.91797C144.83 1.63802 144.938 1.31576 144.938 0.951172ZM0.777344 35.082L7.70117 24.623L9.41992 25.541L2.50586 36L0.777344 35.082ZM7.70117 24.623H10.0645V36H7.70117V24.623ZM0.152344 24.623H2.50586V36H0.152344V24.623ZM20.4941 29.4668V31.3418H14.0488V29.4668H20.4941ZM14.7129 24.623V36H12.3594V24.623H14.7129ZM22.2129 24.623V36H19.8594V24.623H22.2129ZM29.8301 24.623V36H27.4766V24.623H29.8301ZM33.6191 24.623V26.498H23.7363V24.623H33.6191ZM43.2773 34.1348V36H36.7637V34.1348H43.2773ZM37.5059 24.623V36H35.1523V24.623H37.5059ZM42.4375 29.1836V31.0488H36.7637V29.1836H42.4375ZM43.2578 24.623V26.498H36.7637V24.623H43.2578ZM52.6719 24.623V26.498H47.0762V24.623H52.6719ZM54.5273 24.623V36H52.1641V24.623H54.5273ZM46.4512 24.623H48.8145L48.6094 29.7109C48.5703 30.5898 48.4987 31.3711 48.3945 32.0547C48.2969 32.7318 48.1504 33.321 47.9551 33.8223C47.7598 34.3236 47.5091 34.7337 47.2031 35.0527C46.8971 35.3717 46.5228 35.6094 46.0801 35.7656C45.6374 35.9219 45.1198 36 44.5273 36H44.0391V34.0469L44.4102 34.0078C44.6836 33.9753 44.918 33.9069 45.1133 33.8027C45.3086 33.6986 45.4746 33.5423 45.6113 33.334C45.748 33.1257 45.8587 32.8522 45.9434 32.5137C46.028 32.1751 46.0964 31.7617 46.1484 31.2734C46.2005 30.7786 46.2396 30.1927 46.2656 29.5156L46.4512 24.623ZM64.6641 24.623V26.498H59.0684V24.623H64.6641ZM66.5195 24.623V36H64.1562V24.623H66.5195ZM58.4434 24.623H60.8066L60.6016 29.7109C60.5625 30.5898 60.4909 31.3711 60.3867 32.0547C60.2891 32.7318 60.1426 33.321 59.9473 33.8223C59.752 34.3236 59.5013 34.7337 59.1953 35.0527C58.8893 35.3717 58.515 35.6094 58.0723 35.7656C57.6296 35.9219 57.112 36 56.5195 36H56.0312V34.0469L56.4023 34.0078C56.6758 33.9753 56.9102 33.9069 57.1055 33.8027C57.3008 33.6986 57.4668 33.5423 57.6035 33.334C57.7402 33.1257 57.8509 32.8522 57.9355 32.5137C58.0202 32.1751 58.0885 31.7617 58.1406 31.2734C58.1927 30.7786 58.2318 30.1927 58.2578 29.5156L58.4434 24.623ZM76.9492 34.1348V36H70.4355V34.1348H76.9492ZM71.1777 24.623V36H68.8242V24.623H71.1777ZM76.1094 29.1836V31.0488H70.4355V29.1836H76.1094ZM76.9297 24.623V26.498H70.4355V24.623H76.9297ZM80.875 24.623V36H78.5117V24.623H80.875ZM87.6621 24.623L83.0137 31.3906H80.3281L80.0156 29.3105H81.9102L84.9082 24.623H87.6621ZM85.0645 36L81.6953 30.9902L83.3555 29.4961L87.9941 36H85.0645ZM94.7324 24.623V36H92.3789V24.623H94.7324ZM98.5215 24.623V26.498H88.6387V24.623H98.5215ZM4.85938 51.0293H1.71484L1.69531 49.4082H4.49805C4.92122 49.4082 5.2793 49.3529 5.57227 49.2422C5.86523 49.1315 6.08659 48.972 6.23633 48.7637C6.39258 48.5488 6.4707 48.2884 6.4707 47.9824C6.4707 47.6374 6.39583 47.3542 6.24609 47.1328C6.09635 46.9115 5.87174 46.752 5.57227 46.6543C5.27279 46.5501 4.90169 46.498 4.45898 46.498H2.50586V56H0.152344V44.623H4.33203C5.03516 44.623 5.66016 44.6882 6.20703 44.8184C6.76042 44.9421 7.23242 45.1309 7.62305 45.3848C8.01367 45.6387 8.3099 45.9642 8.51172 46.3613C8.72005 46.752 8.82422 47.2142 8.82422 47.748C8.82422 48.2103 8.70703 48.64 8.47266 49.0371C8.24479 49.4342 7.89323 49.7565 7.41797 50.0039C6.94271 50.2513 6.32747 50.388 5.57227 50.4141L4.85938 51.0293ZM4.75195 56H1.05078L2.00781 54.1348H4.75195C5.20768 54.1348 5.58203 54.0697 5.875 53.9395C6.17448 53.8092 6.39583 53.6335 6.53906 53.4121C6.68229 53.1842 6.75391 52.9238 6.75391 52.6309C6.75391 52.3053 6.6888 52.0254 6.55859 51.791C6.4349 51.5501 6.23307 51.3646 5.95312 51.2344C5.67318 51.0977 5.30859 51.0293 4.85938 51.0293H2.45703L2.4668 49.4082H5.51367L6.05078 50.043C6.77344 50.0299 7.35938 50.1569 7.80859 50.4238C8.25781 50.6842 8.58659 51.0228 8.79492 51.4395C9.00977 51.8561 9.11719 52.2891 9.11719 52.7383C9.11719 53.2917 9.01953 53.7734 8.82422 54.1836C8.62891 54.5872 8.3457 54.9258 7.97461 55.1992C7.60352 55.4661 7.14779 55.668 6.60742 55.8047C6.06706 55.9349 5.44857 56 4.75195 56ZM25.9922 50.043V50.5898C25.9922 51.4557 25.8685 52.2305 25.6211 52.9141C25.3737 53.5977 25.0221 54.1836 24.5664 54.6719C24.1172 55.1536 23.5768 55.5215 22.9453 55.7754C22.3138 56.0293 21.6172 56.1562 20.8555 56.1562C20.0938 56.1562 19.3971 56.0293 18.7656 55.7754C18.1341 55.5215 17.5872 55.1536 17.125 54.6719C16.6628 54.1836 16.3047 53.5977 16.0508 52.9141C15.8034 52.2305 15.6797 51.4557 15.6797 50.5898V50.043C15.6797 49.1771 15.8034 48.4023 16.0508 47.7188C16.3047 47.0352 16.6595 46.4492 17.1152 45.9609C17.571 45.4727 18.1146 45.1016 18.7461 44.8477C19.3776 44.5938 20.0742 44.4668 20.8359 44.4668C21.6042 44.4668 22.3008 44.5938 22.9258 44.8477C23.5573 45.1016 24.1009 45.4727 24.5566 45.9609C25.0189 46.4492 25.3737 47.0352 25.6211 47.7188C25.8685 48.4023 25.9922 49.1771 25.9922 50.043ZM23.6387 50.5898V50.0234C23.6387 49.431 23.5768 48.9069 23.4531 48.4512C23.3294 47.9954 23.1439 47.6113 22.8965 47.2988C22.6556 46.9863 22.3626 46.7487 22.0176 46.5859C21.6725 46.4232 21.2786 46.3418 20.8359 46.3418C20.3997 46.3418 20.0059 46.4232 19.6543 46.5859C19.3092 46.7487 19.0163 46.9863 18.7754 47.2988C18.541 47.6113 18.3587 47.9954 18.2285 48.4512C18.1048 48.9069 18.043 49.431 18.043 50.0234V50.5898C18.043 51.1758 18.1048 51.6999 18.2285 52.1621C18.3587 52.6178 18.5443 53.0052 18.7852 53.3242C19.0326 53.6367 19.3288 53.8776 19.6738 54.0469C20.0254 54.2096 20.4193 54.291 20.8555 54.291C21.2982 54.291 21.6888 54.2096 22.0273 54.0469C22.3724 53.8776 22.6654 53.6367 22.9062 53.3242C23.1471 53.0052 23.3294 52.6178 23.4531 52.1621C23.5768 51.6999 23.6387 51.1758 23.6387 50.5898ZM32.6523 48.7246H29.4883V50.5996H32.6523C33.1471 50.5996 33.554 50.6745 33.873 50.8242C34.1921 50.974 34.4297 51.1758 34.5859 51.4297C34.7422 51.6836 34.8203 51.9766 34.8203 52.3086C34.8203 52.8294 34.6413 53.2624 34.2832 53.6074C33.9316 53.9525 33.388 54.125 32.6523 54.125H30.2793V44.623H27.9258V56H32.6523C33.3555 56 33.9837 55.9154 34.5371 55.7461C35.097 55.5703 35.5723 55.3229 35.9629 55.0039C36.3535 54.6784 36.653 54.291 36.8613 53.8418C37.0697 53.3926 37.1738 52.888 37.1738 52.3281C37.1738 51.5794 36.9915 50.9382 36.627 50.4043C36.2624 49.8639 35.7415 49.4505 35.0645 49.1641C34.3939 48.8711 33.5898 48.7246 32.6523 48.7246ZM36.0215 46.4785V44.623H29.625V46.4785H36.0215ZM43.7461 51.9863H40.6016V50.1113H43.7461C44.2539 50.1113 44.6673 50.0365 44.9863 49.8867C45.3118 49.737 45.5495 49.5352 45.6992 49.2812C45.8555 49.0208 45.9336 48.7279 45.9336 48.4023C45.9336 48.0638 45.8555 47.7513 45.6992 47.4648C45.5495 47.1784 45.3118 46.9473 44.9863 46.7715C44.6673 46.5892 44.2539 46.498 43.7461 46.498H41.3926V56H39.0391V44.623H43.7461C44.7031 44.623 45.5202 44.7858 46.1973 45.1113C46.8743 45.4368 47.3887 45.8828 47.7402 46.4492C48.0983 47.0091 48.2773 47.6536 48.2773 48.3828C48.2773 48.9297 48.1764 49.4245 47.9746 49.8672C47.7728 50.3099 47.4766 50.6908 47.0859 51.0098C46.6953 51.3223 46.2201 51.5632 45.6602 51.7324C45.1003 51.9017 44.4622 51.9863 43.7461 51.9863ZM54.8203 46.957L51.4023 56H49.0195L53.5996 44.623H55.1816L54.8203 46.957ZM57.9746 56L54.5371 46.9375L54.1758 44.623H55.7871L60.3574 56H57.9746ZM57.8281 51.7812V53.5488H51.3242V51.7812H57.8281ZM66.002 50.5703H64.1953V49.3496H65.6113C66.1126 49.3496 66.5163 49.2878 66.8223 49.1641C67.1283 49.0339 67.3496 48.8581 67.4863 48.6367C67.623 48.4089 67.6914 48.1419 67.6914 47.8359C67.6914 47.5625 67.6165 47.3151 67.4668 47.0938C67.3236 46.8659 67.0957 46.6836 66.7832 46.5469C66.4707 46.4102 66.0573 46.3418 65.543 46.3418C65.1979 46.3418 64.8789 46.3906 64.5859 46.4883C64.2995 46.5794 64.0651 46.7227 63.8828 46.918C63.707 47.1133 63.6191 47.3607 63.6191 47.6602H61.2656C61.2656 47.1523 61.373 46.7031 61.5879 46.3125C61.8092 45.9154 62.1152 45.5801 62.5059 45.3066C62.8965 45.0332 63.349 44.8249 63.8633 44.6816C64.3841 44.5384 64.9473 44.4668 65.5527 44.4668C66.2363 44.4668 66.8516 44.5319 67.3984 44.6621C67.9518 44.7923 68.4238 44.9876 68.8145 45.248C69.2051 45.502 69.5078 45.8242 69.7227 46.2148C69.9375 46.599 70.0449 47.0482 70.0449 47.5625C70.0449 47.9987 69.9408 48.4023 69.7324 48.7734C69.5306 49.138 69.2474 49.457 68.8828 49.7305C68.5182 49.9974 68.0885 50.2057 67.5938 50.3555C67.1055 50.4987 66.5749 50.5703 66.002 50.5703ZM64.1953 49.8867H66.002C66.7051 49.8867 67.3203 49.9616 67.8477 50.1113C68.375 50.2546 68.8145 50.4596 69.166 50.7266C69.5241 50.9935 69.791 51.3092 69.9668 51.6738C70.1426 52.0319 70.2305 52.4225 70.2305 52.8457C70.2305 53.3926 70.1133 53.8743 69.8789 54.291C69.651 54.7012 69.3255 55.0462 68.9023 55.3262C68.4792 55.5996 67.9844 55.8079 67.418 55.9512C66.8516 56.0879 66.2298 56.1562 65.5527 56.1562C65.0254 56.1562 64.498 56.0977 63.9707 55.9805C63.4499 55.8633 62.9714 55.6745 62.5352 55.4141C62.1055 55.1536 61.7572 54.8086 61.4902 54.3789C61.2298 53.9492 61.0996 53.4251 61.0996 52.8066H63.4531C63.4792 53.1517 63.5866 53.4349 63.7754 53.6562C63.9642 53.8711 64.2148 54.0306 64.5273 54.1348C64.8398 54.2389 65.1882 54.291 65.5723 54.291C66.0996 54.291 66.5326 54.2227 66.8711 54.0859C67.2096 53.9492 67.4603 53.7637 67.623 53.5293C67.7858 53.2884 67.8672 53.0117 67.8672 52.6992C67.8672 52.4128 67.8184 52.1654 67.7207 51.957C67.623 51.7422 67.4766 51.5664 67.2812 51.4297C67.0924 51.293 66.8548 51.1921 66.5684 51.127C66.2819 51.0553 65.9499 51.0195 65.5723 51.0195H64.1953V49.8867ZM82.2031 50.043V50.5898C82.2031 51.4557 82.0794 52.2305 81.832 52.9141C81.5846 53.5977 81.2331 54.1836 80.7773 54.6719C80.3281 55.1536 79.7878 55.5215 79.1562 55.7754C78.5247 56.0293 77.8281 56.1562 77.0664 56.1562C76.3047 56.1562 75.6081 56.0293 74.9766 55.7754C74.3451 55.5215 73.7982 55.1536 73.3359 54.6719C72.8737 54.1836 72.5156 53.5977 72.2617 52.9141C72.0143 52.2305 71.8906 51.4557 71.8906 50.5898V50.043C71.8906 49.1771 72.0143 48.4023 72.2617 47.7188C72.5156 47.0352 72.8704 46.4492 73.3262 45.9609C73.7819 45.4727 74.3255 45.1016 74.957 44.8477C75.5885 44.5938 76.2852 44.4668 77.0469 44.4668C77.8151 44.4668 78.5117 44.5938 79.1367 44.8477C79.7682 45.1016 80.3118 45.4727 80.7676 45.9609C81.2298 46.4492 81.5846 47.0352 81.832 47.7188C82.0794 48.4023 82.2031 49.1771 82.2031 50.043ZM79.8496 50.5898V50.0234C79.8496 49.431 79.7878 48.9069 79.6641 48.4512C79.5404 47.9954 79.3548 47.6113 79.1074 47.2988C78.8665 46.9863 78.5736 46.7487 78.2285 46.5859C77.8835 46.4232 77.4896 46.3418 77.0469 46.3418C76.6107 46.3418 76.2168 46.4232 75.8652 46.5859C75.5202 46.7487 75.2272 46.9863 74.9863 47.2988C74.752 47.6113 74.5697 47.9954 74.4395 48.4512C74.3158 48.9069 74.2539 49.431 74.2539 50.0234V50.5898C74.2539 51.1758 74.3158 51.6999 74.4395 52.1621C74.5697 52.6178 74.7552 53.0052 74.9961 53.3242C75.2435 53.6367 75.5397 53.8776 75.8848 54.0469C76.2363 54.2096 76.6302 54.291 77.0664 54.291C77.5091 54.291 77.8997 54.2096 78.2383 54.0469C78.5833 53.8776 78.8763 53.6367 79.1172 53.3242C79.3581 53.0052 79.5404 52.6178 79.6641 52.1621C79.7878 51.6999 79.8496 51.1758 79.8496 50.5898ZM88.8438 51.0293H85.6992L85.6797 49.4082H88.4824C88.9056 49.4082 89.2637 49.3529 89.5566 49.2422C89.8496 49.1315 90.071 48.972 90.2207 48.7637C90.377 48.5488 90.4551 48.2884 90.4551 47.9824C90.4551 47.6374 90.3802 47.3542 90.2305 47.1328C90.0807 46.9115 89.8561 46.752 89.5566 46.6543C89.2572 46.5501 88.8861 46.498 88.4434 46.498H86.4902V56H84.1367V44.623H88.3164C89.0195 44.623 89.6445 44.6882 90.1914 44.8184C90.7448 44.9421 91.2168 45.1309 91.6074 45.3848C91.998 45.6387 92.2943 45.9642 92.4961 46.3613C92.7044 46.752 92.8086 47.2142 92.8086 47.748C92.8086 48.2103 92.6914 48.64 92.457 49.0371C92.2292 49.4342 91.8776 49.7565 91.4023 50.0039C90.9271 50.2513 90.3118 50.388 89.5566 50.4141L88.8438 51.0293ZM88.7363 56H85.0352L85.9922 54.1348H88.7363C89.1921 54.1348 89.5664 54.0697 89.8594 53.9395C90.1589 53.8092 90.3802 53.6335 90.5234 53.4121C90.6667 53.1842 90.7383 52.9238 90.7383 52.6309C90.7383 52.3053 90.6732 52.0254 90.543 51.791C90.4193 51.5501 90.2174 51.3646 89.9375 51.2344C89.6576 51.0977 89.293 51.0293 88.8438 51.0293H86.4414L86.4512 49.4082H89.498L90.0352 50.043C90.7578 50.0299 91.3438 50.1569 91.793 50.4238C92.2422 50.6842 92.571 51.0228 92.7793 51.4395C92.9941 51.8561 93.1016 52.2891 93.1016 52.7383C93.1016 53.2917 93.0039 53.7734 92.8086 54.1836C92.6133 54.5872 92.3301 54.9258 91.959 55.1992C91.5879 55.4661 91.1322 55.668 90.5918 55.8047C90.0514 55.9349 89.4329 56 88.7363 56ZM99.8008 46.957L96.3828 56H94L98.5801 44.623H100.162L99.8008 46.957ZM102.955 56L99.5176 46.9375L99.1562 44.623H100.768L105.338 56H102.955ZM102.809 51.7812V53.5488H96.3047V51.7812H102.809ZM114.713 49.4668V51.3418H108.268V49.4668H114.713ZM108.932 44.623V56H106.578V44.623H108.932ZM116.432 44.623V56H114.078V44.623H116.432ZM119.371 55.082L126.295 44.623L128.014 45.541L121.1 56L119.371 55.082ZM126.295 44.623H128.658V56H126.295V44.623ZM118.746 44.623H121.1V56H118.746V44.623ZM131.578 55.082L138.502 44.623L140.221 45.541L133.307 56L131.578 55.082ZM138.502 44.623H140.865V56H138.502V44.623ZM130.953 44.623H133.307V56H130.953V44.623Z" fill="#437FEC"/>
</svg>
